# xmcd CD database file
#
# Track frame offsets:
#	150
#	18040
#	37468
#	54073
#	68297
#	82647
#	95892
#	109792
#	124119
#	137044
#	153219
#	168619
#
# Disc length: 2416 seconds
#
# Revision: 0
# Processed by: cddbd v1.5.1PL2 Copyright (c) Steve Scherf et al.
# Submitted via: CDex 1.50
#
DISCID=8e096e0c
DTITLE=Variados - Country Collection - Volume 3
DYEAR=1997
DGENRE=Country
TTITLE0=Bryan Smith - Jack Of All Trades
TTITLE1=Bellamy Brothers - Hard Way To Make An Easy Livin
TTITLE2=J. Scott - Born To Be Wild
TTITLE3=Bob Miller - Summertimes Blue
TTITLE4=Western Flyer - New Tin Roof
TTITLE5=Paulette Carlson - I've Got Your Number
TTITLE6=Sydney Perr - Rain And Teard
TTITLE7=Cristie Gardyn - Better Things To Do
TTITLE8=Mag Line - Blame It On My Heart
TTITLE9=Dogie Bryan - House Of The Rising Sun
TTITLE10=Billy River - I Can See Clearly Now
TTITLE11=Western Flyer - A Hundred Others Like It
EXTD=YEAR: 1997
EXTT0=
EXTT1=
EXTT2=
EXTT3=
EXTT4=
EXTT5=
EXTT6=
EXTT7=
EXTT8=
EXTT9=
EXTT10=
EXTT11=
PLAYORDER=
